<?xml version="1.0" encoding="UTF-8"?>
<svg id="Capa_1" data-name="Capa 1" xmlns="http://www.w3.org/2000/svg" viewBox="0 0 425.2 425.2">
  <defs>
    <style>
      .cls-1 {
        fill: #fefeff;
      }

      .cls-2 {
        fill: #251827;
      }

      .cls-3 {
        fill: #b1739a;
      }
    </style>
  </defs>
  <path class="cls-2" d="M366.88,291.67c2.48-10.45.46-20.49-6.01-29.85-13.12-18.99-43.98-35.23-91.73-48.29-35.48-9.7-67.54-13.9-67.86-13.94-.07,0-.14,0-.21,0-3.06.34-4.5,1.63-5.13,3.09-4.02-.98-5.84.95-6.65,2.83-8.12,18.92,48.06,127.29,90.3,151.45,2.6,1.49,5.11,2.65,7.52,3.48,10.66,3.68,19.42.96,26.12-8.14,2.29-3.11,4.01-6.41,5.18-9.86,8.62-.09,15.09-4.42,19.3-12.99,3.17-6.44,4.32-13.16,3.49-20.06,14.08.72,22.72-5.22,25.68-17.71ZM195.51,204.54c0,.11-.02.22-.02.33-.07,16.81,62.57,71.78,111.87,94.54,5.05,7.89,8.69,15.76,10.26,23.39,1.31,6.33,1.13,12.28-.49,17.79-3.37-.11-7.07-.87-11.12-2.32-20.23-7.21-48.69-31.44-76.15-64.81-24.26-29.48-40.36-57.37-38.28-66.32.28-1.2,1.02-2.7,3.93-2.61ZM249.3,261.05c-29.78-23.03-51.46-46.31-52.02-55.77,10.9,6.57,79.3,48.86,108.27,91.4-17.01-8.09-36.45-20.31-56.25-35.63ZM253.73,242.19c-19.2-15.14-37.95-27.45-48.45-34.05,28.55,11.58,114.77,49.52,131.57,91.51,1.05,2.62,1.79,5.22,2.27,7.8-.39-.04-.78-.06-1.18-.11-8.19-.98-18.13-4.15-29.19-9.16-10.82-16.91-29.22-35.64-55.01-55.98ZM311.81,351.24c-7.59,10.33-18.14,11.72-31.34,4.18-18.64-10.66-42.4-39.52-63.55-77.2-14.87-26.49-24.82-51.06-26.45-64.26,7.94,29.68,73.26,111.12,114.95,125.99.17.06.35.12.52.18,3.82,1.32,7.36,2.07,10.61,2.25-1.11,3.1-2.68,6.06-4.74,8.86ZM336.13,328.65c-3.76,7.65-9.51,11.63-17.16,11.94,1.57-5.65,1.7-11.71.37-18.15-1.41-6.83-4.43-14.07-9-21.69,3.69,1.62,7.31,3.06,10.8,4.27,5.92,2.05,11.51,3.45,16.58,4.06.56.07,1.09.1,1.64.15.88,6.69-.17,13.19-3.23,19.42ZM340.94,307.59c-.48-2.84-1.29-5.71-2.45-8.61-8.57-21.43-35.06-44.12-78.72-67.45-29.28-15.64-56.83-26.3-62.14-28.32.45-.86,1.42-1.63,3.55-1.88,4.3.57,127.89,17.51,158.26,61.47,6.17,8.93,8.1,18.5,5.74,28.44-2.76,11.62-10.91,17.1-24.23,16.34Z"/>
  <path class="cls-3" d="M110.93,81.27c50.12,20.46,69.57,77.67,101.86,97.05,32.3,19.38-13.93,55.12-25.16,54.63-11.23-.48.05-20-83.27-52.89-83.32-32.89-43.54-119.26,6.57-98.79Z"/>
  <path class="cls-1" d="M144.73,124.36c-.16-.05-.3-.15-.41-.29-28.15-36.35-55.95-23.31-56.23-23.18-.44.21-.96.03-1.18-.4-.21-.44-.03-.97.4-1.18.29-.14,29.33-13.85,58.4,23.68.3.38.23.94-.16,1.24-.24.19-.56.23-.83.14Z"/>
  <g>
    <path class="cls-1" d="M119.07,165.1c-.27-.09-.49-.31-.57-.61-.04-.16-1.06-3.64-5.6-3.59-.49,0-.89-.38-.89-.87,0-.49.38-.89.87-.89,4.77-.05,6.87,3.18,7.33,4.9.12.47-.16.95-.63,1.08-.18.05-.35.03-.51-.02Z"/>
    <path class="cls-1" d="M110.41,167.99c-.27-.09-.49-.31-.56-.61-.05-.17-1.06-3.64-5.6-3.59-.49,0-.89-.39-.89-.87,0-.49.38-.89.87-.89,4.77-.05,6.87,3.18,7.32,4.9.12.47-.16.95-.63,1.08-.17.05-.35.04-.51-.02Z"/>
    <path class="cls-1" d="M107.31,157.51c-.27-.09-.49-.31-.57-.61-.04-.16-1.06-3.64-5.6-3.59-.49,0-.89-.39-.89-.87,0-.49.38-.89.87-.89,4.77-.06,6.87,3.18,7.33,4.9.12.47-.16.95-.63,1.08-.18.05-.35.04-.51-.02Z"/>
    <path class="cls-1" d="M97.61,159.29c-.27-.09-.49-.31-.57-.61-.04-.16-1.06-3.64-5.6-3.59-.49,0-.89-.39-.89-.87,0-.49.38-.89.87-.89,4.77-.06,6.88,3.18,7.33,4.9.12.47-.16.95-.63,1.08-.18.05-.35.04-.51-.02Z"/>
    <path class="cls-1" d="M100.84,169.55c-.27-.09-.49-.31-.56-.61-.04-.16-1.06-3.64-5.6-3.59-.49,0-.89-.38-.89-.87,0-.49.38-.89.87-.89,4.77-.06,6.88,3.18,7.33,4.9.12.47-.16.95-.63,1.08-.18.05-.35.04-.51-.02Z"/>
    <path class="cls-1" d="M93.64,149.49c-.27-.09-.49-.31-.57-.61-.04-.16-1.06-3.64-5.6-3.59-.49,0-.89-.39-.89-.87,0-.49.38-.89.87-.89,4.77-.05,6.88,3.18,7.33,4.9.12.47-.16.95-.63,1.08-.18.05-.35.04-.51-.02Z"/>
    <path class="cls-1" d="M78.86,149.9c-.27-.09-.48-.31-.56-.6-.13-.47.15-.96.62-1.09,4.79-1.32,7.69,1.11,8.55,2.58.25.42.11.96-.31,1.21-.42.25-.96.11-1.2-.31-.09-.15-1.94-3.06-6.56-1.78-.18.05-.36.04-.52-.02Z"/>
  </g>
</svg>