<?xml version="1.0" encoding="UTF-8"?>
<svg id="Capa_1" data-name="Capa 1" xmlns="http://www.w3.org/2000/svg" viewBox="0 0 425.2 425.2">
  <defs>
    <style>
      .cls-1 {
        fill: #fefeff;
      }

      .cls-2 {
        fill: #f3c200;
      }

      .cls-3 {
        fill: #413756;
      }

      .cls-4 {
        fill: #53afa2;
      }

      .cls-5 {
        fill: #f1ecd7;
      }

      .cls-6 {
        fill: #251827;
      }

      .cls-7 {
        fill: #db607c;
      }
    </style>
  </defs>
  <path class="cls-3" d="M323.74,117.54c-5.99-7.41-46.98,28.65-75.13,51.46-.05-.03-.09-.06-.13-.09-98-63.35-158.55,12.22-158.55,12.22-22.19,21.24-30.6,54.17-18.39,82.46,10.88,25.2,38.12,46.72,86.55,52.99,77.1,9.99,136.82-47.41,126.29-99.73-2.24-11.14-7.69-22.05-16.82-32.03,24-17.84,52.43-43.62,56.74-46.25,6.9-4.21,9.02-9.17-.56-21.02Z"/>
  <path class="cls-4" d="M289.9,177.26s-25.02-24.65-25.46-30.32c-.21-2.78,68.17-55.84,73.05-52.36,8.91,6.37,23.26,26.81,21.67,31.18-1.59,4.37-69.26,51.5-69.26,51.5Z"/>
  <path class="cls-1" d="M102.02,275.76c-.07,0-.14-.01-.21-.03-.17-.06-16.68-5.91-23.1-22.89-5.5-14.55-2.19-32.67,9.84-53.86,20.03-35.3,53.98-44.41,78.94-45.84,26.98-1.54,49.54,5.33,49.76,5.4.34.1.52.46.42.8-.1.34-.46.52-.8.42-.22-.07-22.6-6.88-49.35-5.34-24.62,1.42-58.12,10.41-77.86,45.19-11.83,20.84-15.11,38.59-9.76,52.76,6.2,16.42,22.17,22.09,22.33,22.15.33.11.51.48.39.81-.09.26-.34.43-.6.43Z"/>
  <g>
    <path class="cls-5" d="M154.43,176.92c32.92-2.54,26.73,23.98,55.64,22.51,28.91-1.47,54.39,41.35,18.07,65.39-36.32,24.04-70.82,20.34-96.12-1.48-42.52-36.67-10.51-83.89,22.41-86.42Z"/>
    <path class="cls-2" d="M179.62,210.76c24.94,2.23,22.27,38.85-1.52,41.78-23.78,2.93-43.29-45.79,1.52-41.78Z"/>
    <path class="cls-1" d="M175.42,193c-.18,0-.35-.07-.48-.22-5.05-5.79-11-8.89-17.69-9.22-5-.25-8.57,1.24-8.61,1.25-.32.14-.7-.01-.84-.34-.14-.32.01-.7.34-.84.15-.06,15.1-6.2,27.75,8.3.23.27.2.67-.06.9-.12.11-.27.16-.42.16Z"/>
    <path class="cls-1" d="M192.79,228.25c-.18,0-.35-.07-.48-.22-5.05-5.79-11-8.89-17.69-9.22-5-.25-8.57,1.24-8.61,1.25-.32.14-.7-.01-.84-.34-.14-.32.01-.7.34-.84.15-.06,15.11-6.2,27.75,8.3.23.27.2.67-.06.9-.12.11-.27.16-.42.16Z"/>
    <path class="cls-1" d="M135.21,190.58c-.16,0-.33-.06-.45-.19-.25-.25-.25-.65,0-.9,1.09-1.09,7.45-3.59,8.71-4.08.33-.13.7.04.83.36.13.33-.04.7-.36.83-2.83,1.1-7.58,3.1-8.28,3.8-.12.12-.29.19-.45.19Z"/>
    <path class="cls-1" d="M215.61,263.23c-.27,0-.52-.17-.61-.44-.11-.33.07-.7.41-.81,9.8-3.23,15.2-9.18,18.01-13.59,3.05-4.8,3.78-8.89,3.79-8.93.06-.35.39-.58.74-.52.35.06.58.39.52.74-.03.17-3.14,17.08-22.65,23.52-.07.02-.13.03-.2.03Z"/>
    <path class="cls-6" d="M174.79,274.43c-36.4,0-48.76-31.82-48.9-32.19-.12-.33.04-.7.37-.82.33-.12.7.04.82.37.15.41,15.95,40.99,64.76,29.2.34-.08.69.13.77.47.08.34-.13.69-.47.77-6.31,1.52-12.08,2.19-17.35,2.19Z"/>
  </g>
  <path class="cls-7" d="M71.53,263.59s19.93,74.74,107.12,66.56c87.19-8.18,117.26-71.77,106.19-110.69,0,0-10.65,79.43-111.03,90.88-67.01,7.64-102.27-46.74-102.27-46.74Z"/>
  <path class="cls-1" d="M352.21,126.37c-.26,0-.51-.17-.6-.43-4.23-12.32-22.24-24.75-22.42-24.87-.29-.2-.37-.6-.17-.89.2-.29.59-.37.89-.17.76.52,18.54,12.79,22.9,25.51.11.33-.06.7-.4.81-.07.02-.14.03-.21.03Z"/>
  <path class="cls-1" d="M276.61,223.07c-.06,0-.11,0-.17-.02-.34-.09-.54-.44-.45-.78,4.73-17.47-19.38-37-19.62-37.2-.27-.22-.32-.62-.1-.9.22-.27.62-.32.9-.1.06.05,6.31,5.08,11.86,12.26,7.42,9.59,10.25,18.67,8.19,26.27-.08.28-.33.47-.61.47Z"/>
  <g>
    <path class="cls-1" d="M309.26,123.6c-.07,0-.14-.01-.21-.03-.33-.11-.51-.48-.4-.81,1.15-3.38,3.98-4.06,5.29-3.95.35.03.61.34.58.69-.03.35-.34.61-.69.58h0c-.12-.01-2.87-.17-3.98,3.09-.09.26-.34.43-.6.43Z"/>
    <path class="cls-1" d="M309.14,130.47c-.07,0-.14-.01-.21-.03-.33-.11-.51-.48-.4-.81,1.15-3.38,3.97-4.06,5.29-3.95.35.03.61.34.58.69-.03.35-.33.61-.69.58h0c-.11,0-2.87-.17-3.98,3.09-.09.26-.34.43-.6.43Z"/>
    <path class="cls-1" d="M300.92,130.04c-.07,0-.14-.01-.21-.03-.33-.11-.51-.48-.4-.81,1.15-3.38,3.97-4.06,5.29-3.95.35.03.61.34.58.69-.03.35-.34.61-.69.58h0c-.12-.01-2.87-.17-3.98,3.09-.09.27-.34.43-.6.43Z"/>
    <path class="cls-1" d="M299.75,137.36c-.07,0-.14-.01-.21-.03-.33-.11-.51-.48-.4-.81,1.15-3.38,3.96-4.06,5.29-3.95.35.03.61.34.58.69-.03.35-.33.61-.69.58h0c-.11,0-2.87-.17-3.98,3.09-.09.27-.34.43-.6.43Z"/>
    <path class="cls-1" d="M307.84,137.65c-.07,0-.14-.01-.21-.03-.33-.11-.51-.48-.4-.81,1.15-3.38,3.96-4.06,5.29-3.95.35.03.61.34.58.69-.03.35-.32.61-.69.58h0c-.11,0-2.87-.17-3.98,3.09-.09.27-.34.43-.6.43Z"/>
    <path class="cls-1" d="M291.8,137.72c-.07,0-.14-.01-.21-.03-.33-.11-.51-.48-.4-.81,1.15-3.38,3.98-4.06,5.29-3.95.35.03.61.34.58.69-.03.35-.34.6-.69.58h0c-.12-.01-2.87-.17-3.98,3.09-.09.27-.34.43-.6.43Z"/>
    <path class="cls-1" d="M293.02,144.79s-.03,0-.05,0c-.35-.02-.62-.33-.59-.68.26-3.71,2.7-5.15,3.96-5.39.34-.07.68.16.75.51.07.34-.16.68-.5.75-.12.03-2.67.61-2.93,4.23-.02.34-.3.59-.64.59Z"/>
  </g>
  <path class="cls-6" d="M172.56,321.76c-31.71,0-55.05-12.76-55.36-12.93-.31-.17-.42-.56-.25-.87.17-.31.56-.42.87-.25.42.23,42.34,23.13,90.08,7.06,47.68-16.05,57.87-41.69,57.97-41.94.12-.33.49-.5.82-.37.33.12.5.49.37.82-.1.26-10.45,26.44-58.76,42.7-12.52,4.22-24.65,5.78-35.75,5.78Z"/>
</svg>