<?xml version="1.0" encoding="UTF-8"?>
<svg id="Capa_1" data-name="Capa 1" xmlns="http://www.w3.org/2000/svg" viewBox="0 0 425.2 425.2">
  <defs>
    <style>
      .cls-1 {
        fill: #231f20;
      }
    </style>
  </defs>
  <path class="cls-1" d="M339.64,100.48c-9.5,30.69-28.2,57.89-53.72,77.47-5.41,4.15-11.49,8.16-17.96,11.11.99-12.52-1.08-25.22-9.34-34.95-11.23-13.22-32.34-16.55-44.12-2.32-10.15,12.25-9.26,30.57,1.37,42.19,8.91,9.74,21.91,13.7,34.75,13.16-1.25,3.6-2.7,7.06-4.26,10.29-10.92,22.54-30.76,39.04-52.84,50.1-17.61,8.83-36.89,14.56-56.5,17.17,4.01-2.39,8.02-4.79,12.04-7.18,7.46-4.45,1.22-16.46-6.27-11.99-10.01,5.97-20.01,11.94-30.02,17.91-5.82,3.47-16.79,7.43-16.37,15.82.43,8.56,11.9,12.05,18.28,15.01,9.44,4.37,19.12,8.07,29.07,11.13,8.32,2.56,12.23-10.39,3.88-12.96-6.82-2.1-13.54-4.45-20.12-7.2-3.57-1.49-7.09-3.1-10.56-4.81-.42-.21-.83-.42-1.24-.63,59.51-1.06,130.61-29.97,148.68-91.8.33-1.14.65-2.3.95-3.47.05-.02.1-.03.15-.05,21.77-7.1,40.71-23.91,55.17-41.22,14.49-17.35,25.28-37.3,31.96-58.89,2.57-8.32-10.38-12.22-12.96-3.88ZM239.17,192.6c-12.88-3.49-23.11-16.13-16.19-29.41,3.25-6.23,9.69-8.7,16.39-6.48,8.22,2.73,12.88,10.42,14.56,18.51,1.2,5.8,1.11,11.98.17,18.11-4.91.74-9.91.62-14.92-.74Z"/>
</svg>