<?xml version="1.0" encoding="UTF-8"?>
<svg id="Capa_1" data-name="Capa 1" xmlns="http://www.w3.org/2000/svg" viewBox="0 0 425.2 425.2">
  <defs>
    <style>
      .cls-1 {
        fill: #231f20;
      }
    </style>
  </defs>
  <path class="cls-1" d="M290.38,176.33c-14.09-21.24-35.6-36.13-60.42-41.96-28.4-6.67-59.29-2-83.99,13.68-3.97,2.52-.59,9.05,3.41,6.52,40.74-25.88,98.59-19.8,129.56,18.47,14.36,17.75,22.21,40.89,21.52,63.7-.69,23.03-10.68,44.44-27.5,60.14-18.78,17.52-44.52,27.08-70.2,24.13-4.71-.54-4.93,6.81-.25,7.35,49.63,5.7,97.73-32.33,104.49-81.56,3.34-24.37-3.06-50.04-16.61-70.47Z"/>
  <path class="cls-1" d="M217.89,338.82c-4.89-2.98-9.77-5.96-14.66-8.94-2.66-1.62-5.4-3.16-7.99-4.88-2.93-1.94-2.74-2.92-.06-4.94,9.51-7.17,19.1-14.24,28.65-21.36,3.79-2.82-1.26-8.18-5.01-5.37-6.37,4.75-12.73,9.49-19.1,14.24-2.97,2.22-5.95,4.42-8.91,6.65-2.24,1.68-4.59,3.38-5.41,6.2-1.81,6.2,4.24,9.78,8.66,12.48,6.66,4.06,13.32,8.13,19.99,12.19,4.03,2.46,7.9-3.79,3.85-6.26Z"/>
</svg>