<?xml version="1.0" encoding="UTF-8"?>
<svg id="Capa_1" data-name="Capa 1" xmlns="http://www.w3.org/2000/svg" viewBox="0 0 425.2 425.2">
  <defs>
    <style>
      .cls-1 {
        fill: #231f20;
      }
    </style>
  </defs>
  <path class="cls-1" d="M350.68,377.64c-9.82-1.89-19.65-3.78-29.47-5.67-2.43-.47-4.85-.93-7.28-1.4,55.21-33.84,80.66-107.98,57.89-168.74-10.21-27.25-33.64-54.98-63.21-60.76-5.69-16.44-16.7-31.16-31.38-41.92-33.49-24.55-77.92-23.67-114.89-7.8-.83.36-1.66.73-2.49,1.1-8.51-6.16-18.17-10.81-28.19-14.26-10.03-3.46-20.41-5.69-30.84-7.49-7.97-1.38-11.73,10.8-3.65,12.19,16.49,2.85,34.7,7.41,49.62,16.18-12.63,7.25-24.21,16.76-31.32,29.32-8.31,14.66-9.68,34.13.07,48.5,19.09,28.15,62.81,13.27,71.89-15.81,5.33-17.06.48-35.82-9.39-50.24-2.25-3.29-4.77-6.32-7.48-9.14,27.37-11.02,58.89-13.39,85.91-.24,16.95,8.25,30.97,21.88,38.29,38.58-.97.04-1.94.1-2.92.19-20.05,1.9-38.45,15.56-51.25,30.46-11.37,13.24-18.61,32.86-8.42,49.01,9.52,15.09,28.6,16.12,43.72,9.65,15.96-6.83,27.38-22.1,32.92-38.17,4.16-12.05,5.07-24.31,3.29-36.07,23.15,7.48,40.66,30.85,48.51,52.82,19.65,54.97-3.92,122.22-54.01,152.22,7.7-17.67,15.4-35.34,23.1-53.01,3.26-7.49-8.95-11.09-12.19-3.65-5.22,11.99-10.44,23.97-15.67,35.96-2.24,5.14-4.48,10.27-6.71,15.41-2.08,4.77-6,10.64-6.37,15.96-.73,10.5,13.71,10.45,20.78,11.81,12.5,2.41,25,4.81,37.51,7.22,7.96,1.53,11.71-10.64,3.65-12.19ZM174.78,132.8c4.1,13.44,2.46,28.7-8.64,38.26-8.51,7.34-22.05,11.17-32.48,5.69-12.88-6.77-14.53-24.31-9.8-36.62,5.86-15.23,20.4-25.46,34.32-32.73.03-.02.06-.03.09-.05,7.46,6.63,13.3,14.94,16.51,25.45ZM300.14,169.93c-.86,14.14-6.3,28.4-16.35,38.57-8.76,8.86-25.95,17.66-37.43,8.36-14.41-11.67-2.25-32.12,7.61-41.9,11.61-11.52,26.43-22.59,43.54-22.31.45,0,.9.04,1.35.06,1.18,5.53,1.65,11.29,1.29,17.23Z"/>
</svg>