<?xml version="1.0" encoding="UTF-8"?>
<svg id="Capa_1" data-name="Capa 1" xmlns="http://www.w3.org/2000/svg" viewBox="0 0 425.2 425.2">
  <defs>
    <style>
      .cls-1 {
        fill: #fefeff;
      }

      .cls-2 {
        fill: #413756;
      }

      .cls-3 {
        fill: #f1ecd7;
      }

      .cls-4 {
        fill: #cdcbb9;
      }
    </style>
  </defs>
  <g>
    <path class="cls-2" d="M161.02,146.73S54.47,77.79,38.73,90.51c-15.73,12.72-27.15,34.73-14.72,57.99,15.03,28.12,42.91,20.53,50.6,12.11,31.5-34.54,54.83,37.93,54.83,37.93,51.85-3.49,31.58-51.8,31.58-51.8Z"/>
    <path class="cls-4" d="M161.02,146.73s248.01,127.37,245.42,133.52c-1.01,2.38-8.75,11.45-21.22,21.12l-63.88,14.94c-57.47-9.14-183.14-85.32-183.14-85.32l-4.5-39.77c13.59-23.05,27.31-44.49,27.31-44.49Z"/>
    <path class="cls-3" d="M324.87,297.84c-15.43-16.02-3.58-47.58-40.26-41.8-36.67,5.78-37.86,12.29-55.14-19.41-17.28-31.7-27.78-20.24-58.06-23.31-20.54-2.08-32.27-14.4-37.7-22.12-14.95,25.35-29.76,52.65-26.01,55.54,14.71,11.34,133.77,71.93,191.24,81.06,35.19,5.59,66.6-11.19,86.28-26.46-16.48-16.9-47.93,9.38-60.35-3.51Z"/>
  </g>
  <path class="cls-1" d="M116.28,133.67c-.21,0-.43-.08-.59-.23-14.15-13.31-53.17-30.2-53.56-30.37-.44-.19-.64-.7-.45-1.14.19-.44.7-.64,1.14-.45,1.61.69,39.69,17.18,54.07,30.7.35.33.36.87.04,1.22-.17.18-.4.27-.63.27Z"/>
  <path class="cls-1" d="M140.88,148.19c-.16,0-.32-.04-.47-.14l-17.5-11.37c-.4-.26-.51-.8-.25-1.2.26-.4.79-.51,1.2-.25l17.5,11.37c.4.26.51.8.25,1.2-.17.25-.44.39-.73.39Z"/>
  <g>
    <path class="cls-1" d="M353.07,259.74c-.37,0-.72-.24-.83-.62-.05-.17-1.17-3.71-5.83-3.55-.45.05-.88-.36-.89-.83-.02-.48.36-.88.83-.89,4.85-.18,7.05,3.06,7.55,4.79.13.46-.13.94-.59,1.07-.08.02-.16.03-.24.03Z"/>
    <path class="cls-1" d="M344.31,262.9c-.37,0-.72-.24-.83-.62h0c-.04-.15-1.13-3.68-5.83-3.55-.42.03-.88-.36-.89-.83-.02-.48.36-.88.83-.89,4.83-.15,7.05,3.06,7.55,4.79.13.46-.13.94-.59,1.07-.08.02-.16.03-.24.03Z"/>
    <path class="cls-1" d="M340.9,252.29c-.37,0-.72-.24-.83-.62h0c-.04-.15-1.13-3.69-5.83-3.55-.44.02-.88-.36-.89-.83-.02-.48.36-.88.83-.89,4.83-.17,7.05,3.06,7.55,4.79.13.46-.13.94-.59,1.07-.08.02-.16.03-.24.03Z"/>
    <path class="cls-1" d="M331.06,254.33c-.37,0-.72-.24-.83-.62h0c-.05-.15-1.16-3.71-5.83-3.55-.45.02-.88-.36-.89-.83-.02-.48.36-.88.83-.89,4.88-.17,7.05,3.06,7.55,4.79.13.46-.13.94-.59,1.07-.08.02-.16.03-.24.03Z"/>
    <path class="cls-1" d="M334.6,264.71c-.37,0-.72-.24-.83-.62h0c-.04-.15-1.13-3.7-5.83-3.55-.45.04-.88-.36-.89-.83-.02-.48.36-.88.83-.89,4.85-.21,7.05,3.06,7.55,4.79.13.46-.13.94-.59,1.07-.08.02-.16.03-.24.03Z"/>
    <path class="cls-1" d="M326.77,244.44c-.37,0-.72-.24-.83-.62h0c-.04-.15-1.11-3.69-5.83-3.55-.43.02-.88-.36-.89-.83-.02-.48.36-.88.83-.89,4.82-.17,7.05,3.06,7.55,4.79.13.46-.13.94-.59,1.07-.08.02-.16.03-.24.03Z"/>
    <path class="cls-1" d="M319.48,247.26c-.29,0-.57-.14-.73-.4-.09-.14-2.06-3.1-6.77-1.67-.46.14-.94-.12-1.08-.58-.14-.46.12-.94.58-1.08,4.83-1.46,7.83.94,8.74,2.41.25.41.13.94-.28,1.19-.14.09-.3.13-.45.13Z"/>
  </g>
  <g>
    <path class="cls-1" d="M171.8,253.96c-.37,0-.72-.24-.83-.62h0c-.04-.15-1.11-3.67-5.83-3.55-.42.03-.88-.36-.89-.83-.02-.48.36-.88.83-.89,4.83-.18,7.05,3.06,7.55,4.79.13.46-.13.94-.59,1.07-.08.02-.16.03-.24.03Z"/>
    <path class="cls-1" d="M163.05,257.12c-.37,0-.72-.25-.83-.62-.05-.17-1.2-3.7-5.83-3.55-.43.05-.88-.36-.89-.83-.02-.48.36-.88.83-.89,4.79-.2,7.05,3.06,7.55,4.79.13.46-.13.94-.59,1.07-.08.02-.16.03-.24.03Z"/>
    <path class="cls-1" d="M159.63,246.51c-.37,0-.72-.25-.83-.62-.05-.17-1.19-3.73-5.83-3.55-.44.06-.88-.36-.89-.83-.02-.48.36-.88.83-.89,4.82-.18,7.05,3.06,7.55,4.79.13.46-.13.94-.59,1.07-.08.02-.16.03-.24.03Z"/>
    <path class="cls-1" d="M149.79,248.55c-.37,0-.72-.25-.83-.62-.05-.17-1.14-3.7-5.83-3.55-.45.04-.88-.36-.89-.83-.02-.48.36-.88.83-.89,4.85-.18,7.05,3.06,7.55,4.79.13.46-.13.94-.59,1.07-.08.02-.16.03-.24.03Z"/>
    <path class="cls-1" d="M153.33,258.93c-.37,0-.72-.24-.83-.62h0c-.04-.15-1.14-3.7-5.83-3.55-.45.02-.88-.36-.89-.83-.02-.48.36-.88.83-.89,4.82-.19,7.05,3.06,7.55,4.79.13.46-.13.94-.59,1.07-.08.02-.16.03-.24.03Z"/>
    <path class="cls-1" d="M145.5,238.66c-.37,0-.72-.24-.83-.62h0c-.04-.15-1.17-3.7-5.83-3.55-.44.04-.88-.36-.89-.83-.02-.48.36-.88.83-.89,4.81-.19,7.05,3.06,7.55,4.79.13.46-.13.94-.59,1.07-.08.02-.16.03-.24.03Z"/>
    <path class="cls-1" d="M138.21,241.48c-.29,0-.57-.14-.73-.4-.08-.13-2.05-3.1-6.77-1.67-.46.14-.94-.12-1.08-.58-.14-.46.12-.94.58-1.08,4.83-1.46,7.83.94,8.74,2.41.25.41.13.94-.28,1.19-.14.09-.3.13-.45.13Z"/>
  </g>
</svg>