<?xml version="1.0" encoding="UTF-8"?>
<svg id="Capa_1" data-name="Capa 1" xmlns="http://www.w3.org/2000/svg" viewBox="0 0 425.2 425.2">
  <defs>
    <style>
      .cls-1 {
        fill: #fefeff;
      }

      .cls-2 {
        fill: #f3c200;
      }

      .cls-3 {
        fill: #e1503f;
      }

      .cls-4 {
        fill: #251827;
      }

      .cls-5 {
        fill: #db607c;
      }
    </style>
  </defs>
  <g>
    <g>
      <g>
        <path class="cls-5" d="M378.91,137.15c6.2-1.25,14.25-5.04,11.32-11.68-6.99-15.87-25.44,1.57-25.44,1.57-12.61,9.67,5.15,29.56,13.84,22.67,5.38-4.27,3.48-9.81.28-12.55Z"/>
        <path class="cls-4" d="M373.36,145.75c-.42,0-.85-.05-1.27-.16-4.03-1-6.19-6.62-6.28-6.86-.24-.63.08-1.33.71-1.57.63-.23,1.33.08,1.57.71.49,1.3,2.27,4.79,4.59,5.36,1.12.28,2.29-.15,3.59-1.3,1.92-1.7,1.39-3,.83-3.83-.64-.95-1.68-1.73-2.77-2.31-2.27.58-4.92.71-5.89-.44-.49-.58-.52-1.36-.09-2.04.38-.61,1.25-1.28,3.22-1.01.89.12,1.93.42,2.98.89.71-.24,1.41-.56,2.02-.97,1.72-1.16,1.61-2.3,1.58-2.68-.06-.66-.3-1.1-.77-1.4-1.77-1.12-6.21-.14-8.59.74-.63.24-1.33-.09-1.56-.72-.23-.63.09-1.33.72-1.56.74-.28,7.38-2.64,10.74-.52,1.12.7,1.77,1.82,1.9,3.24.19,2.17-1.04,4.09-3.43,5.39,1.26.96,2.29,2.16,2.71,3.54.41,1.35.4,3.4-1.97,5.51-1.5,1.33-3.02,1.99-4.53,1.99Z"/>
      </g>
      <g>
        <path class="cls-5" d="M361.41,124.83s.14-25.38-16.22-19.65c-6.85,2.4-4.13,10.87-.81,16.25-4.19-.47-9.54,1.92-8.98,8.77.9,11.05,27.55,10.45,26.01-5.37Z"/>
        <path class="cls-4" d="M346.74,133.18c-1.34,0-2.72-.25-3.87-1-1.67-1.08-2.55-2.93-2.62-5.49-.08-3.17,1.41-4.58,2.68-5.2,1.29-.64,2.87-.71,4.43-.44-.68-2.62-.12-4.84,1.59-6.18,1.12-.87,2.38-1.15,3.66-.82,3.84,1,6.65,7.46,6.95,8.2.26.62-.03,1.33-.65,1.59-.62.26-1.33-.03-1.59-.65-.99-2.34-3.3-6.25-5.33-6.78-.55-.14-1.02-.02-1.55.39-.3.23-1.2.94-.88,2.98.12.72.36,1.45.67,2.14,1.05.45,1.99,1,2.68,1.57,1.54,1.25,1.64,2.35,1.46,3.04-.21.78-.8,1.29-1.55,1.33-1.53.13-3.23-1.95-4.35-4.02-1.16-.38-2.44-.61-3.57-.43-.99.16-2.3.66-2.23,3.22.05,1.74.54,2.89,1.51,3.51,2.02,1.3,5.77.22,7.04-.31.62-.25,1.33.04,1.59.66.26.62-.04,1.33-.66,1.59-.16.07-2.71,1.1-5.42,1.1Z"/>
      </g>
      <path class="cls-4" d="M367.41,120.87c-.25,0-.5-.07-.71-.23-.54-.39-.67-1.15-.27-1.7.88-1.22,8.79-11.91,15.22-12.57,1.62-.16,3.01.28,4.15,1.33.5.45.53,1.22.08,1.72-.45.5-1.22.53-1.72.08-.63-.58-1.35-.8-2.26-.7-4.54.47-11.29,8.52-13.5,11.58-.24.33-.61.5-.99.5Z"/>
      <path class="cls-4" d="M363.64,118.78c-.16,0-.33-.03-.49-.11-.61-.27-.89-.99-.62-1.61.05-.12,5.04-11.56-.49-16.4-.51-.44-.56-1.21-.12-1.72.44-.51,1.21-.56,1.72-.12,6.88,6.02,1.35,18.69,1.11,19.23-.2.45-.65.72-1.11.72Z"/>
    </g>
    <path class="cls-4" d="M342.35,330.09s-.06,0-.09,0c-1.65-.12-3.34-.41-5.01-.85-.65-.17-1.04-.84-.86-1.49.17-.65.85-1.03,1.49-.86,1.53.41,3.07.67,4.57.78.67.05,1.17.63,1.12,1.3-.05.64-.58,1.13-1.21,1.13ZM347.21,329.94c-.6,0-1.12-.44-1.2-1.05-.09-.67.37-1.28,1.03-1.38,1.54-.22,3.02-.61,4.4-1.17.62-.25,1.33.05,1.58.67.25.62-.05,1.33-.67,1.58-1.57.63-3.24,1.08-4.98,1.33-.06,0-.12.01-.17.01ZM332.99,327.64c-.17,0-.34-.03-.5-.11-1.51-.68-3-1.49-4.43-2.42-.56-.36-.73-1.12-.36-1.68.36-.57,1.11-.73,1.68-.36,1.33.86,2.71,1.61,4.11,2.24.61.28.89,1,.61,1.61-.2.45-.65.72-1.11.72ZM356.12,326.3c-.37,0-.73-.17-.97-.49-.4-.54-.3-1.3.24-1.7,1.2-.9,2.29-1.97,3.26-3.17.42-.53,1.19-.61,1.71-.19.53.42.61,1.19.19,1.71-1.09,1.37-2.34,2.57-3.7,3.6-.22.17-.48.24-.73.24ZM324.83,322.39c-.28,0-.56-.1-.79-.29-1.26-1.08-2.47-2.26-3.59-3.51-.45-.5-.41-1.27.09-1.72.5-.45,1.27-.41,1.72.09,1.05,1.17,2.18,2.28,3.36,3.29.51.44.57,1.21.13,1.72-.24.28-.58.42-.92.42ZM362.19,318.81c-.18,0-.36-.04-.54-.12-.6-.3-.85-1.03-.55-1.63.3-.6.58-1.23.83-1.89.25-.62.95-.93,1.58-.69.62.25.93.95.69,1.58-.28.72-.59,1.41-.91,2.07-.21.43-.64.68-1.09.68ZM318.33,315.18c-.38,0-.76-.18-1-.52-.94-1.35-1.83-2.79-2.62-4.27-.32-.59-.1-1.33.5-1.65.59-.32,1.33-.09,1.65.5.75,1.39,1.58,2.75,2.47,4.02.38.55.25,1.31-.3,1.69-.21.15-.46.22-.7.22ZM313.73,306.63c-.48,0-.94-.29-1.13-.77-.61-1.52-1.15-3.12-1.6-4.73-.18-.65.19-1.32.84-1.5.65-.18,1.32.2,1.5.84.43,1.53.94,3.04,1.52,4.49.25.62-.05,1.33-.68,1.58-.15.06-.3.09-.45.09ZM311.02,297.17c-.56,0-1.03-.32-1.13-.9-.31-1.83-.5-3.42-.6-4.96-.04-.67.47-1.25,1.14-1.29.66-.03,1.25.47,1.29,1.14.09,1.45.27,2.96.53,4.47.11.66-.31,1.4-.97,1.52-.09.02-.17.02-.26.02ZM310.5,287.59s-.05,0-.08,0c-.67-.05-1.18-.63-1.13-1.3.12-1.71.36-3.39.71-4.99.15-.66.8-1.06,1.45-.92.66.15,1.07.8.92,1.45-.33,1.48-.55,3.04-.66,4.63-.04.64-.58,1.13-1.21,1.13ZM312.63,278.14c-.15,0-.31-.03-.46-.09-.62-.25-.92-.96-.67-1.59.64-1.57,1.43-3.09,2.33-4.51.36-.56,1.11-.73,1.68-.37.57.36.73,1.11.37,1.68-.83,1.3-1.54,2.68-2.13,4.12-.19.47-.65.76-1.13.76ZM337.38,274.4c-.67,0-1.37-.06-2.07-.18-.66-.11-1.11-.74-.99-1.41.11-.66.75-1.11,1.41-.99,1.57.27,2.99.17,4.15-.28.62-.24,1.33.06,1.58.69.24.63-.07,1.33-.69,1.58-1.02.4-2.15.6-3.37.6ZM330.95,272.62c-.19,0-.39-.05-.57-.14-1.43-.76-2.85-1.73-4.22-2.89-.51-.43-.58-1.2-.15-1.71.43-.51,1.2-.58,1.71-.15,1.24,1.05,2.52,1.92,3.79,2.6.59.31.82,1.05.5,1.65-.22.41-.64.65-1.08.65ZM343.59,270.52c-.12,0-.25-.02-.38-.06-.64-.21-.99-.9-.78-1.53.15-.47.23-.98.23-1.52,0-.48-.06-1-.19-1.54-.07-.29-.16-.56-.28-.82-.28-.61,0-1.33.6-1.61.61-.28,1.33,0,1.61.6.18.4.33.83.43,1.27.17.72.25,1.42.25,2.09,0,.8-.12,1.57-.35,2.27-.17.51-.64.84-1.16.84ZM317.84,269.99c-.3,0-.6-.11-.83-.33-.49-.46-.52-1.23-.06-1.72,1.15-1.24,2.43-2.37,3.8-3.38.14-.1.3-.17.46-.21-.57-.74-1.12-1.51-1.66-2.31-.37-.56-.23-1.31.33-1.69.56-.37,1.31-.23,1.69.33.91,1.36,1.87,2.62,2.85,3.75.44.51.38,1.28-.12,1.72-.51.44-1.27.39-1.71-.12-.08.19-.21.36-.39.49-1.25.92-2.41,1.96-3.46,3.08-.24.26-.56.39-.89.39ZM325.63,264.23c-.45,0-.88-.25-1.09-.68-.29-.6-.04-1.33.56-1.63,1.55-.76,3.16-1.36,4.78-1.78.64-.17,1.31.22,1.49.87.17.65-.22,1.32-.87,1.49-1.46.38-2.92.93-4.33,1.62-.17.08-.35.12-.53.12ZM339.76,262.61c-.15,0-.3-.03-.45-.09-1.15-.46-2.53-.69-4.08-.69-.72.05-1.34-.53-1.35-1.2,0-.67.41-1.22,1.08-1.23h.27c1.86,0,3.53.29,4.97.86.62.25.93.95.68,1.58-.19.48-.65.77-1.13.77ZM318.05,258.41c-.43,0-.85-.23-1.07-.64-.76-1.41-1.49-2.91-2.17-4.46-.27-.62,0-1.33.62-1.6.61-.27,1.33,0,1.6.62.66,1.49,1.36,2.93,2.09,4.29.32.59.1,1.33-.49,1.65-.18.1-.38.15-.58.15ZM314.11,249.52c-.5,0-.96-.31-1.14-.8-.54-1.49-1.05-3.05-1.54-4.69-.19-.64.17-1.32.82-1.51.64-.19,1.32.17,1.51.82.48,1.59.98,3.11,1.5,4.55.23.63-.1,1.33-.73,1.56-.14.05-.28.07-.41.07ZM311.48,240.16c-.59,0-1.1-.42-1.2-1.02-.28-1.7-.43-3.39-.44-5.03,0-.67.53-1.22,1.21-1.23h.01c.67,0,1.21.54,1.22,1.21.01,1.52.15,3.08.41,4.66.11.66-.34,1.29-1,1.4-.07.01-.13.02-.2.02ZM311.43,230.48c-.07,0-.13,0-.2-.02-.66-.11-1.11-.74-1-1.4.28-1.68.72-3.33,1.3-4.91.23-.63.93-.95,1.56-.72.63.23.95.93.72,1.56-.53,1.44-.93,2.94-1.18,4.47-.1.59-.62,1.01-1.2,1.01ZM314.76,221.4c-.21,0-.43-.05-.62-.17-.58-.34-.77-1.09-.43-1.67.85-1.43,1.84-2.81,2.95-4.12.43-.51,1.21-.57,1.71-.14.51.44.57,1.2.14,1.71-1.02,1.2-1.94,2.47-2.71,3.78-.23.38-.63.6-1.05.6ZM347.17,217.06c-.08,0-.16,0-.24-.02-1.57-.31-3.21-.98-4.87-1.99-.57-.35-.76-1.1-.41-1.67.35-.58,1.1-.76,1.67-.41,1.4.85,2.82,1.43,4.09,1.69.66.13,1.09.77.96,1.43-.11.58-.62.98-1.19.98ZM351.83,216.31c-.37,0-.73-.17-.97-.48-.41-.54-.3-1.3.24-1.71.87-.65,1.34-1.8,1.41-3.39.03-.67.61-1.18,1.27-1.16.67.03,1.19.6,1.16,1.27-.13,2.93-1.36,4.46-2.37,5.22-.22.17-.48.25-.73.25ZM321.02,214.01c-.34,0-.68-.14-.92-.42-.44-.51-.38-1.28.12-1.72,1.24-1.08,2.6-2.09,4.02-3.02.56-.37,1.32-.21,1.68.36.37.56.21,1.32-.36,1.68-1.33.87-2.6,1.81-3.76,2.82-.23.2-.51.3-.8.3ZM338.85,212.24c-.3,0-.61-.11-.84-.34-1.2-1.15-2.31-2.45-3.31-3.86-.39-.55-.26-1.31.29-1.7.55-.39,1.31-.26,1.7.29.91,1.28,1.93,2.47,3.02,3.52.48.47.5,1.24.03,1.72-.24.25-.56.37-.88.37ZM329.15,208.71c-.45,0-.89-.25-1.1-.69-.29-.6-.04-1.33.56-1.63,1.5-.73,3.06-1.37,4.64-1.91.63-.22,1.33.12,1.54.76.22.64-.12,1.33-.76,1.54-1.48.51-2.95,1.11-4.36,1.8-.17.08-.35.12-.53.12ZM352.31,207.51c-.32,0-.63-.12-.87-.37-.8-.82-2.07-1.45-3.68-1.8-.66-.15-1.07-.8-.92-1.45.15-.66.81-1.06,1.45-.92,2.11.47,3.76,1.31,4.9,2.49.47.48.46,1.25-.03,1.72-.24.23-.54.34-.85.34ZM338.34,205.58c-.57,0-1.08-.4-1.19-.98-.13-.66.29-1.3.95-1.43,1.73-.35,3.42-.56,5.03-.61.63-.02,1.24.5,1.26,1.17.02.67-.5,1.24-1.17,1.26-1.47.05-3.03.24-4.63.57-.08.02-.16.02-.24.02ZM333.23,204.36c-.46,0-.89-.26-1.1-.7-.72-1.52-1.32-3.12-1.77-4.75-.18-.65.2-1.32.84-1.5.64-.18,1.32.2,1.5.84.42,1.5.97,2.96,1.63,4.36.29.61.03,1.33-.58,1.62-.17.08-.35.12-.52.12ZM330.6,194.97c-.6,0-1.11-.4-1.18-1.01-.13-1.25-.18-2.31-.18-3.34,0-.6.02-1.18.05-1.75.04-.67.65-1.18,1.29-1.14.67.04,1.18.62,1.14,1.29-.03.52-.05,1.06-.05,1.6,0,.95.05,1.93.15,2.95.07.66-.41,1.31-1.07,1.39-.05,0-.1,0-.15,0ZM331.27,185.38c-.1,0-.21-.01-.31-.04-.65-.17-1.03-.84-.86-1.49.44-1.66,1.06-3.26,1.85-4.77.31-.6,1.04-.83,1.64-.52.6.31.83,1.04.52,1.64-.7,1.35-1.26,2.79-1.66,4.28-.15.54-.64.9-1.17.9ZM335.7,176.81c-.27,0-.55-.09-.77-.28-.52-.43-.59-1.2-.16-1.71,1.06-1.28,2.27-2.49,3.61-3.59.52-.43,1.29-.35,1.71.16.43.52.35,1.28-.16,1.71-1.22,1-2.32,2.1-3.28,3.27-.24.29-.59.44-.94.44ZM343.15,170.61c-.42,0-.83-.22-1.06-.61-.34-.58-.13-1.33.45-1.66,2.61-1.5,4.58-2.13,4.67-2.16.64-.21,1.32.16,1.52.8.2.64-.15,1.32-.79,1.53-.02,0-1.82.58-4.19,1.94-.19.11-.4.16-.6.16Z"/>
  </g>
  <g>
    <g>
      <path class="cls-4" d="M215.94,107.68c.06.02.12.05.19.08,2.5,1.23,3.79,6.52,3.93,7.12.07.31-.01.63-.22.86-.21.23-.52.35-.84.31l-10.81-1.41c-.35-.05-.65-.28-.77-.61-.13-.33-.06-.7.17-.97,1.31-1.53,5.71-6.36,8.36-5.38ZM217.8,113.95c-.6-1.88-1.57-3.99-2.53-4.47-.57-.36-2.87,1.28-5.01,3.48l7.54.99Z"/>
      <path class="cls-3" d="M215.82,112.13s-13.32-6.73-16.97,2.09c-3.65,8.82,2.34,20.4,2.34,20.4l13.29-10.77,5.44,15.46s12.72-8.8,12.08-19.08c-.65-10.27-16.18-8.11-16.18-8.11Z"/>
      <path class="cls-4" d="M216.64,119.65c-.39,1.34-1.79,2.12-3.13,1.74-1.34-.39-2.12-1.79-1.74-3.13.38-1.34,1.79-2.12,3.13-1.74,1.34.39,2.12,1.79,1.74,3.13Z"/>
      <path class="cls-4" d="M226.56,117.94c-.39,1.34-1.79,2.12-3.13,1.74-1.34-.38-2.12-1.79-1.74-3.13s1.79-2.12,3.13-1.74c1.34.39,2.12,1.79,1.74,3.13Z"/>
      <path class="cls-4" d="M206.78,114.91c-.39,1.34-1.79,2.12-3.13,1.74-1.34-.39-2.12-1.79-1.74-3.13.39-1.34,1.79-2.12,3.13-1.74,1.34.39,2.12,1.79,1.74,3.13Z"/>
      <path class="cls-4" d="M225.31,129.76c-.39,1.34-1.79,2.12-3.13,1.74-1.34-.39-2.12-1.79-1.74-3.13.39-1.34,1.79-2.12,3.13-1.74,1.34.39,2.12,1.79,1.74,3.13Z"/>
      <path class="cls-4" d="M203.88,125.02c-.39,1.34-1.79,2.12-3.13,1.74-1.34-.39-2.12-1.79-1.74-3.13.39-1.34,1.79-2.12,3.13-1.74,1.34.39,2.12,1.79,1.74,3.13Z"/>
      <path class="cls-4" d="M211.3,95.33c.1.04.19.08.29.12,2.14,1.01,3.44,4.14,3.87,9.31.04.53-.35.99-.88,1.04-.53.05-.99-.35-1.04-.88-.48-5.81-1.95-7.33-2.78-7.72-.93-.43-1.86.17-1.87.17-.44.3-1.04.19-1.34-.25-.3-.44-.19-1.04.25-1.34.07-.05,1.67-1.13,3.49-.45Z"/>
      <path class="cls-4" d="M227,101.39c.7.26,1.16.5,1.22.53.47.25.65.83.4,1.3-.25.47-.83.64-1.3.4-.98-.52-3.91-1.62-5.74-.61-1.1.6-1.74,1.94-1.91,3.97-.04.53-.51.92-1.04.88-.53-.04-.92-.51-.88-1.04.23-2.72,1.2-4.57,2.91-5.51,2.14-1.17,4.81-.5,6.34.07Z"/>
      <path class="cls-4" d="M217.49,130.56c.48.18.74.7.58,1.19-.07.21-1.66,5.03-6.5,5.44-1.22.1-2.3-.24-3.2-1.02-2.22-1.91-2.51-5.87-2.52-6.04-.04-.53.37-.99.89-1.02.53-.03.99.37,1.02.89.06.92.52,3.56,1.86,4.71.5.43,1.09.62,1.79.56,3.54-.29,4.77-3.95,4.82-4.11.16-.5.71-.78,1.21-.62.01,0,.03,0,.04.01Z"/>
      <path class="cls-4" d="M215.52,127.11c.44.16.7.62.61,1.09-.1.52-.61.86-1.13.75l-4.1-.83c-.52-.1-.86-.61-.75-1.13.1-.52.61-.86,1.13-.75l4.1.83c.05,0,.1.02.15.04Z"/>
      <path class="cls-4" d="M214.86,130.92c.45.17.71.64.6,1.12-.12.52-.64.84-1.15.72l-5.53-1.27c-.52-.12-.84-.63-.72-1.15.12-.52.64-.84,1.15-.72l5.53,1.27s.08.02.12.04Z"/>
    </g>
    <path class="cls-4" d="M186.32,251.78c0-.14,0-.28.02-.42.07-.78.32-1.46.77-2.03.33-.42.93-.49,1.35-.17.42.33.5.93.17,1.35-.21.27-.33.6-.36,1-.04.57.06,1.08.34,1.5.29.44.16,1.04-.28,1.33-.45.29-1.04.16-1.33-.28-.44-.67-.66-1.44-.66-2.29ZM187.48,194.23c0-.33.17-.64.46-.82.45-.28,1.05-.13,1.32.33.44.72,1.32,1.39,2.56,1.92.49.21.72.78.5,1.26-.21.49-.78.71-1.26.5-1.63-.7-2.79-1.61-3.45-2.69-.09-.16-.14-.33-.14-.5ZM187.59,190.57c0-.16.04-.31.12-.46.24-.44.54-.88.9-1.33.58-.72,1.25-1.33,2.01-1.82.45-.29,1.04-.16,1.33.28.29.45.16,1.04-.28,1.33-.58.38-1.11.85-1.56,1.41-.29.35-.52.7-.7,1.04-.25.47-.84.64-1.3.39-.32-.17-.5-.5-.5-.85ZM188.65,315.27c0-.11.02-.21.05-.32.18-.5.73-.77,1.23-.59,1.17.41,2.38.76,3.59,1.03.52.12.84.63.73,1.15-.12.52-.63.84-1.15.73-1.28-.29-2.56-.66-3.81-1.09-.4-.14-.64-.51-.64-.91ZM190.06,255.43c0-.07,0-.13.02-.2.11-.52.62-.85,1.14-.74.68.14,1.45.22,2.29.22.41,0,.83-.02,1.27-.05.53-.04.99.35,1.04.88.03.54-.35.99-.88,1.04-.49.04-.96.06-1.42.06-.97,0-1.88-.09-2.69-.26-.45-.1-.76-.5-.76-.94ZM190.4,248.64c0-.53.42-.96.96-.96h.01c1.21,0,2.57.22,4.04.64.51.15.8.68.66,1.19-.15.51-.68.81-1.19.66-1.3-.38-2.48-.57-3.51-.57-.53,0-.97-.43-.97-.96ZM193.77,186.51c0-.48.36-.9.85-.95.47-.06.96-.09,1.46-.09.84,0,1.74.08,2.65.25.52.09.88.58.78,1.12-.09.52-.59.87-1.12.78-.8-.14-1.58-.22-2.31-.22-.42,0-.83.02-1.23.07-.53.06-1.01-.31-1.07-.84,0-.04,0-.08,0-.12ZM194.18,197.58c0-.06,0-.11.01-.17.09-.52.59-.87,1.11-.78,1.14.2,2.39.33,3.69.37.53.02.95.45.93,1-.02.53-.46.95-1,.93-1.4-.05-2.73-.18-3.96-.4-.47-.08-.8-.49-.8-.95ZM196.15,316.94s0-.06,0-.09c.05-.53.52-.92,1.05-.87.75.07,1.53.11,2.32.11.45,0,.91-.01,1.38-.04.53-.03.99.37,1.02.9,0,.55-.37.99-.9,1.02-.5.03-1,.05-1.5.05-.85,0-1.69-.04-2.5-.12-.5-.05-.87-.47-.87-.96ZM197.68,254.97c0-.43.29-.82.73-.93.96-.24,1.95-.55,2.94-.91-1.01-.62-2.02-1.17-3.02-1.64-.48-.23-.68-.8-.46-1.28.23-.48.8-.69,1.28-.46,1.15.54,2.32,1.18,3.48,1.91.45.28.59.87.31,1.33-.01.02-.02.03-.03.05.14.1.24.24.31.41.19.49-.05,1.05-.54,1.25-1.27.5-2.54.91-3.78,1.22-.52.13-1.04-.18-1.17-.7-.02-.08-.03-.16-.03-.23ZM201.29,187.73c0-.12.02-.23.07-.35.19-.5.75-.74,1.25-.55,1.18.46,2.39,1.04,3.59,1.72.46.26.62.85.36,1.31-.26.46-.85.63-1.31.36-1.12-.63-2.25-1.17-3.35-1.6-.38-.15-.61-.51-.61-.9ZM201.86,197.88c0-.5.38-.92.89-.96,1.24-.09,2.49-.26,3.72-.48.52-.1,1.02.25,1.12.77.09.53-.25,1.02-.77,1.12-1.29.24-2.61.41-3.92.51-.53.04-.99-.36-1.03-.89,0-.03,0-.05,0-.07ZM203.79,316.42c0-.43.29-.82.72-.93,1.2-.31,2.34-.74,3.4-1.28.47-.24,1.05-.05,1.29.42.24.47.05,1.05-.42,1.29-1.18.6-2.46,1.08-3.79,1.43-.51.13-1.04-.18-1.17-.69-.02-.08-.03-.16-.03-.24ZM204.3,254.68c0-.21.07-.42.2-.59.33-.42.93-.49,1.35-.16,1.02.8,2.02,1.67,2.98,2.58.38.37.4.98.03,1.36-.37.38-.98.4-1.36.03-.91-.87-1.87-1.7-2.84-2.46-.24-.19-.37-.47-.37-.76ZM204.84,252.18c0-.34.19-.68.51-.85,1.1-.58,2.18-1.23,3.21-1.93.44-.3,1.04-.18,1.34.26.3.44.18,1.04-.26,1.34-1.09.73-2.23,1.42-3.39,2.03-.47.25-1.05.07-1.3-.4-.08-.14-.11-.3-.11-.45ZM207.06,151.8c0-.19.06-.39.18-.56.31-.43.91-.53,1.34-.23.05.04,1.28.91,3.08,2.49.4.35.44.96.09,1.36-.35.4-.96.44-1.36.09-1.72-1.51-2.91-2.36-2.92-2.37-.26-.19-.4-.48-.4-.78ZM208,191.47c0-.2.06-.39.18-.57.31-.43.92-.52,1.34-.21,1.04.76,2.07,1.6,3.07,2.49.39.36.43.96.07,1.36-.35.4-.96.43-1.36.07-.94-.85-1.92-1.64-2.91-2.36-.26-.19-.4-.48-.4-.78ZM209.42,196.49c0-.41.27-.8.69-.92,1.22-.37,2.4-.8,3.49-1.29.49-.22,1.05,0,1.27.49.13.3.1.62-.05.88.22.03.42.13.58.3.88.96,1.73,1.97,2.53,3.02.33.42.24,1.03-.18,1.35-.42.32-1.03.24-1.35-.18-.76-1-1.57-1.97-2.42-2.88-.25-.27-.31-.63-.21-.96-1,.42-2.04.79-3.12,1.11-.51.15-1.04-.14-1.2-.65-.03-.09-.04-.18-.04-.28ZM209.86,259.99c0-.27.11-.54.33-.73.4-.35,1.01-.3,1.36.1.85.99,1.67,2.03,2.43,3.1.31.43.21,1.03-.23,1.34-.43.31-1.03.21-1.34-.23-.72-1.02-1.5-2.01-2.32-2.95-.16-.18-.23-.41-.23-.63ZM210.58,312.95c0-.27.12-.55.34-.74.9-.76,1.75-1.64,2.52-2.62.33-.42.93-.49,1.35-.16s.49.93.16,1.35c-.85,1.09-1.79,2.07-2.8,2.91-.41.34-1.01.29-1.36-.12-.15-.18-.23-.4-.23-.62ZM211.21,247.88c0-.27.12-.55.34-.74.95-.8,1.87-1.66,2.73-2.56.37-.38.98-.4,1.36-.03.38.37.4.98.03,1.36-.91.95-1.88,1.85-2.88,2.7-.41.34-1.01.29-1.36-.12-.15-.18-.23-.4-.23-.62ZM212.87,156.88c0-.25.09-.5.28-.68.38-.37.99-.37,1.36,0,.93.94,1.83,1.91,2.66,2.88.34.4.3,1.01-.1,1.36-.4.35-1.01.3-1.36-.1-.8-.93-1.67-1.87-2.57-2.78-.19-.19-.28-.43-.28-.68ZM214.31,266.25c0-.33.17-.66.48-.84.46-.26,1.05-.11,1.31.36.65,1.13,1.26,2.31,1.8,3.51.22.48,0,1.05-.48,1.27-.48.22-1.05,0-1.27-.48-.51-1.14-1.09-2.26-1.71-3.34-.09-.15-.13-.32-.13-.48ZM215.33,306.96c0-.15.04-.31.11-.45.56-1.04,1.07-2.18,1.53-3.38.19-.5.74-.75,1.24-.56.5.19.75.75.56,1.24-.48,1.29-1.03,2.5-1.63,3.62-.25.47-.84.64-1.3.39-.32-.17-.51-.51-.51-.85ZM216.41,193.33c0-.31.15-.62.44-.81,1.06-.69,2.02-1.46,2.85-2.28.38-.37.99-.37,1.36,0,.37.38.37.99,0,1.36-.92.91-1.98,1.76-3.15,2.52-.45.29-1.04.16-1.33-.28-.11-.16-.16-.34-.16-.52ZM216.53,242.34c0-.2.06-.41.2-.59.76-.99,1.47-2.02,2.12-3.08.28-.45.87-.6,1.32-.32.45.28.6.87.32,1.32-.68,1.12-1.43,2.22-2.24,3.26-.32.42-.93.5-1.35.17-.25-.19-.37-.47-.37-.76ZM217.48,273.25c0-.4.25-.77.65-.91.5-.17,1.05.1,1.22.6.42,1.23.79,2.51,1.09,3.78.12.52-.2,1.04-.71,1.16-.52.12-1.04-.2-1.16-.71-.29-1.22-.64-2.43-1.04-3.61-.04-.1-.05-.21-.05-.31ZM217.88,162.73c0-.3.14-.59.4-.78.43-.31,1.03-.22,1.34.21.79,1.09,1.52,2.2,2.16,3.3.27.46.12,1.05-.34,1.32-.46.27-1.05.12-1.32-.34-.61-1.04-1.3-2.1-2.06-3.14-.12-.17-.18-.37-.18-.56ZM218.07,299.8c0-.08.01-.16.03-.24.3-1.17.57-2.41.8-3.68.09-.52.59-.87,1.11-.78.52.09.87.59.78,1.11-.23,1.33-.51,2.62-.83,3.83-.13.51-.66.82-1.17.69-.43-.11-.72-.5-.72-.93ZM218.39,202.72c0-.32.16-.64.45-.82.45-.28,1.04-.14,1.32.31.7,1.12,1.34,2.28,1.92,3.44.24.48.04,1.05-.44,1.29-.48.24-1.05.04-1.29-.44-.55-1.11-1.16-2.21-1.83-3.28-.1-.16-.15-.33-.15-.51ZM219.26,280.72c0-.47.35-.88.83-.95.53-.08,1.01.29,1.09.82.18,1.28.31,2.59.38,3.91.03.51-.38.98-.91,1.01-.53.03-.98-.38-1.01-.91-.07-1.26-.19-2.52-.37-3.74,0-.05,0-.09,0-.14ZM219.42,292.23s0-.07,0-.1c.14-1.27.22-2.53.26-3.77.02-.53.46-.95.99-.93.53.02.92.47.93.99-.04,1.28-.13,2.6-.27,3.91-.06.53-.53.91-1.06.85-.49-.05-.86-.47-.86-.96ZM220.53,235.78c0-.14.03-.28.09-.41.52-1.12,1-2.28,1.41-3.47.17-.5.72-.77,1.22-.59.5.17.77.72.59,1.22-.43,1.25-.93,2.48-1.48,3.66-.23.48-.8.69-1.28.46-.35-.16-.55-.51-.55-.87ZM221.75,169.36c0-.37.21-.72.57-.88.49-.21,1.05,0,1.27.49.55,1.24,1,2.5,1.35,3.74.15.5-.15,1.04-.66,1.19-.51.14-1.04-.15-1.19-.66-.33-1.15-.75-2.32-1.26-3.49-.06-.13-.08-.26-.08-.39ZM221.78,187.91c0-.17.04-.34.13-.49.56-.94.99-1.95,1.29-3l.08-.29c.13-.51.66-.82,1.17-.69s.82.66.69,1.17l-.09.34c-.34,1.2-.84,2.36-1.48,3.45-.27.46-.86.61-1.32.34-.3-.18-.47-.5-.47-.83ZM221.78,209.61c0-.39.24-.76.63-.9.5-.19,1.05.07,1.24.57.46,1.25.86,2.52,1.17,3.78.13.51-.19,1.04-.7,1.17-.51.13-1.04-.19-1.17-.7-.3-1.19-.67-2.39-1.1-3.57-.04-.11-.06-.22-.06-.33ZM223.04,228.53c0-.07,0-.15.03-.22l.12-.51c.23-1.05.41-2.11.53-3.17.06-.53.54-.91,1.06-.85.53.06.92.53.85,1.06-.13,1.12-.32,2.25-.56,3.36l-.12.54c-.12.52-.64.84-1.16.71-.44-.11-.74-.5-.74-.93ZM223.64,217.06c0-.48.35-.89.84-.95.53-.07,1.01.3,1.08.83.17,1.31.26,2.64.27,3.95h0c0,.54-.43.97-.95.97-.53,0-.97-.42-.97-.95-.01-1.23-.1-2.48-.26-3.72,0-.04,0-.08,0-.13ZM223.8,176.75c0-.48.36-.9.85-.96.53-.06,1,.32,1.06.85.15,1.34.18,2.67.08,4.02-.04.53-.5.93-1.03.89-.53-.04-.92-.48-.89-1.03.09-1.23.06-2.45-.08-3.67,0-.04,0-.07,0-.11Z"/>
  </g>
  <path class="cls-4" d="M59.12,302.79c0-.39.27-.74.66-.83.46-.1.92.18,1.02.64.01.05.15.54,1.31,1.57.35.31.38.85.07,1.2-.31.35-.85.38-1.2.07-1.08-.96-1.68-1.76-1.84-2.47-.01-.06-.02-.13-.02-.19ZM63.29,212.36s0-.05,0-.08c.1-1.02.52-2.21,1.26-3.52.23-.41.75-.56,1.16-.32.41.23.56.75.32,1.16-.62,1.1-.97,2.06-1.05,2.84-.04.47-.46.81-.93.77-.44-.04-.77-.41-.77-.85ZM63.44,306.83c0-.16.04-.32.13-.46.25-.4.78-.51,1.18-.26.88.57,1.86,1.13,2.89,1.66.42.22.58.73.37,1.15-.22.42-.73.58-1.15.37-1.08-.56-2.1-1.14-3.03-1.74-.25-.16-.39-.44-.39-.72ZM64.09,267.13c0-.45.12-.92.36-1.4.21-.42.73-.59,1.15-.37.42.21.59.72.37,1.15-.36.72-.16,1.21.7,1.69.41.23.56.75.33,1.16-.23.41-.75.56-1.16.33-1.45-.8-1.75-1.83-1.75-2.56ZM64.8,215.15c0-.12.03-.25.08-.37.2-.42.71-.6,1.14-.4.58.28,1.38.42,2.36.42.18,0,.37,0,.56-.02.47-.02.87.34.9.81.03.45-.34.87-.81.9-.22.01-.44.02-.65.02-1.25,0-2.29-.2-3.11-.59-.3-.15-.48-.45-.48-.77ZM66.45,206.43c0-.22.08-.43.25-.6.88-.89,1.89-1.61,2.99-2.15.42-.2.93-.03,1.14.4.2.42.03.93-.4,1.14-.93.45-1.78,1.06-2.52,1.81-.33.34-.87.34-1.21,0-.17-.17-.25-.39-.25-.61ZM66.72,263.69c0-.27.13-.53.36-.7.9-.64,1.96-1.21,3.15-1.72.43-.18.93.02,1.12.45.18.43-.02.93-.45,1.12-1.07.45-2.02.97-2.83,1.54-.39.27-.92.18-1.19-.21-.1-.15-.16-.32-.16-.49ZM68.67,269.86s0-.07,0-.1c.06-.47.48-.8.95-.74.72.09,1.52.13,2.37.13.29,0,.59,0,.9-.02.47-.02.87.35.88.82.04.46-.35.87-.82.88-.33.01-.65.02-.97.02-.91,0-1.78-.05-2.57-.15-.43-.05-.75-.42-.75-.84ZM69.49,309.97c0-.11.02-.22.07-.33.18-.43.68-.64,1.11-.46,1.04.43,2.09.82,3.13,1.16.45.15.69.63.55,1.07-.15.45-.63.69-1.07.55-1.08-.35-2.18-.76-3.26-1.21-.33-.14-.52-.45-.52-.79ZM71.5,215.11c0-.38.26-.73.65-.83,1.01-.25,2.07-.58,3.16-.99.44-.16.93.06,1.1.5.17.44-.06.93-.5,1.1-1.15.43-2.28.78-3.35,1.05-.46.11-.92-.17-1.03-.63-.02-.07-.02-.14-.02-.2ZM72.47,203.5c0-.42.31-.79.74-.84.58-.08,1.18-.11,1.79-.11.59,0,1.2.04,1.82.11.47.05.8.48.75.94-.05.47-.48.8-.94.75-.55-.06-1.09-.1-1.63-.1-.53,0-1.06.03-1.56.1-.47.06-.89-.27-.96-.73,0-.04,0-.07,0-.11ZM72.93,260.98c0-.38.25-.72.64-.82,1.11-.29,2.27-.51,3.45-.67.47-.06.9.27.96.73.06.47-.27.9-.73.96-1.11.15-2.2.36-3.24.63-.46.12-.92-.15-1.04-.61-.02-.07-.03-.14-.03-.21ZM75.47,269.67c0-.42.31-.78.73-.84,1.08-.15,2.18-.37,3.27-.63.46-.11.92.17,1.03.63.1.46-.17.92-.63,1.03-1.14.27-2.3.49-3.42.66-.47.07-.9-.26-.97-.72,0-.04,0-.08,0-.12ZM75.97,312.07c0-.06,0-.13.02-.19.11-.46.56-.75,1.02-.64,1.1.25,2.2.45,3.27.58.47.06.81.49.74.95-.06.47-.48.8-.95.74-1.13-.14-2.29-.35-3.44-.61-.39-.09-.66-.44-.66-.83ZM77.89,212.75c0-.32.18-.62.48-.77.99-.48,1.98-1.01,2.94-1.58.41-.24.93-.1,1.17.3.24.4.1.93-.3,1.17-1.01.59-2.04,1.15-3.07,1.64-.42.2-.93.03-1.14-.4-.06-.12-.08-.25-.08-.37ZM79.19,204.21c0-.08.01-.16.04-.25.14-.45.61-.7,1.06-.57,1.08.33,2.18.75,3.29,1.26.43.2.62.7.42,1.13-.2.43-.7.61-1.13.42-1.04-.48-2.07-.87-3.07-1.18-.37-.11-.61-.45-.61-.82ZM79.68,260.08c0-.47.37-.84.84-.85h.51c1,0,2.01.05,2.99.14.47.05.8.46.76.93-.05.47-.47.81-.93.76-.92-.09-1.87-.14-2.82-.14h-.49c-.47.01-.86-.36-.86-.84h0ZM82.1,268.1c0-.36.23-.69.59-.81,1.05-.35,2.11-.74,3.12-1.18.43-.18.93.02,1.12.45.19.43-.02.93-.45,1.12-1.06.45-2.16.87-3.26,1.23-.45.15-.93-.1-1.08-.54-.03-.09-.04-.18-.04-.27ZM82.76,312.89c0-.47.35-.85.83-.85,1.16,0,2.25-.08,3.27-.23.47-.07.9.25.97.72.07.47-.25.9-.72.97-1.11.16-2.27.24-3.47.24-.47,0-.88-.38-.88-.85ZM83.76,209.29c0-.27.12-.53.36-.7.49-.34.97-.7,1.43-1.06-.2-.27-.23-.64-.04-.95.24-.4.77-.53,1.17-.29.08.05.16.1.24.15.34-.18.78-.1,1.04.21.14.17.21.36.2.59.48.32.95.65,1.41,1,.38.28.46.81.18,1.19-.28.38-.81.46-1.19.18-.51-.37-1.02-.73-1.53-1.07-.62.5-1.26.98-1.92,1.45-.38.27-.92.18-1.19-.2-.11-.15-.16-.32-.16-.49ZM84.67,166.93c0-.08.01-.16.03-.24.13-.45.6-.71,1.05-.58.06.02,1.46.43,3.28,1.67.39.26.49.8.22,1.18-.26.39-.79.49-1.18.22-1.57-1.07-2.78-1.43-2.79-1.44-.37-.11-.61-.45-.61-.82ZM86.44,260.77c0-.06,0-.13.02-.19.11-.46.56-.75,1.02-.64,1.16.27,2.3.61,3.37,1.02.44.17.66.66.49,1.1-.17.44-.66.66-1.1.49-1-.38-2.06-.7-3.15-.95-.39-.09-.66-.44-.66-.83ZM88.37,265.42c0-.3.16-.6.45-.75.99-.53,1.95-1.1,2.86-1.71.36-.24.83-.17,1.11.14.01-.11.05-.22.11-.32.23-.41.75-.55,1.16-.32,1.04.59,2.02,1.27,2.92,2.01.36.3.42.84.12,1.2-.3.36-.84.42-1.2.12-.83-.68-1.73-1.3-2.68-1.85-.08-.05-.15-.11-.21-.17-.03.24-.16.46-.38.61-.95.63-1.96,1.23-2.99,1.79-.42.22-.93.07-1.15-.35-.07-.13-.1-.27-.1-.4ZM88.95,204.87c0-.21.08-.43.24-.59.79-.81,1.52-1.65,2.17-2.5.29-.37.82-.44,1.2-.15.37.29.44.82.15,1.2-.69.9-1.47,1.79-2.3,2.65-.33.34-.87.35-1.21.02-.17-.17-.26-.39-.26-.61ZM89.44,311.87c0-.36.23-.69.58-.81,1.04-.34,2.03-.79,2.95-1.31.41-.23.93-.09,1.16.32.24.41.09.93-.32,1.16-1.02.58-2.12,1.07-3.26,1.45-.45.15-.93-.09-1.08-.54-.03-.09-.04-.18-.04-.27ZM90.3,170.68c0-.22.09-.45.26-.62.34-.32.88-.31,1.21.03.81.85,1.55,1.79,2.2,2.81.25.4.14.92-.26,1.18-.4.25-.92.14-1.18-.26-.59-.93-1.26-1.78-1.99-2.55-.16-.16-.24-.38-.24-.59ZM90.87,211.07c0-.2.07-.4.21-.56.31-.35.85-.39,1.2-.08.86.76,1.7,1.56,2.51,2.4.33.34.32.88-.02,1.21-.34.33-.88.32-1.21-.02-.78-.81-1.59-1.58-2.41-2.31-.19-.17-.29-.4-.29-.64ZM93.09,199.48c0-.14.04-.29.11-.43.56-.97,1.04-1.96,1.42-2.95.17-.44.66-.66,1.1-.49.44.17.65.67.49,1.1-.41,1.07-.93,2.14-1.53,3.19-.24.41-.76.55-1.16.31-.27-.16-.43-.44-.43-.74ZM93.97,176.38c0-.33.2-.65.52-.79.43-.18.93.02,1.12.46.44,1.06.82,2.18,1.11,3.35.11.46-.16.92-.62,1.04-.46.12-.92-.16-1.04-.62-.28-1.09-.62-2.13-1.03-3.11-.04-.11-.07-.22-.07-.33ZM94.03,261.65c0-.25.11-.49.31-.66.86-.71,1.68-1.46,2.45-2.24.33-.34.87-.34,1.21-.01.34.33.34.87.01,1.21-.8.82-1.67,1.62-2.58,2.36-.36.3-.9.25-1.2-.12-.13-.16-.19-.35-.19-.54ZM95.31,308.51c0-.24.1-.47.29-.64.79-.7,1.53-1.5,2.21-2.37.29-.37.82-.44,1.2-.15.37.29.44.82.15,1.2-.74.96-1.56,1.84-2.43,2.61-.35.31-.89.28-1.2-.07-.14-.16-.21-.36-.21-.57ZM95.5,193.14c0-.05,0-.11.01-.16.09-.5.17-1,.22-1.5.06-.61.1-1.2.14-1.77.03-.47.43-.83.9-.8.47.03.82.44.8.9-.03.6-.08,1.21-.14,1.84-.05.56-.13,1.11-.24,1.66-.09.46-.53.77-1,.68-.41-.08-.69-.44-.69-.84ZM95.6,215.97c0-.25.11-.49.31-.66.36-.3.9-.25,1.2.11.74.89,1.44,1.82,2.11,2.76.27.39.18.92-.21,1.19-.39.27-.92.18-1.19-.21-.64-.91-1.32-1.8-2.03-2.66-.13-.16-.2-.35-.2-.54ZM95.67,182.95c0-.42.31-.79.74-.84.47-.06.89.27.95.74.14,1.12.23,2.29.26,3.48,0,.43-.36.86-.83.87-.47.01-.86-.36-.87-.83-.03-1.14-.11-2.25-.25-3.31,0-.04,0-.07,0-.11ZM98,267.53c0-.24.1-.48.3-.65.36-.31.9-.26,1.2.09.76.89,1.45,1.86,2.06,2.88.24.4.11.93-.29,1.17-.4.24-.93.11-1.17-.29-.56-.94-1.2-1.83-1.9-2.65-.14-.16-.2-.36-.2-.55ZM98.78,256.78c0-.18.06-.36.18-.52.67-.87,1.3-1.79,1.86-2.73.24-.4.76-.54,1.17-.3.41.24.54.76.3,1.17-.59,1-1.26,1.97-1.97,2.9-.29.37-.82.44-1.2.15-.22-.17-.33-.42-.33-.68ZM99.48,303.16c0-.14.03-.28.1-.41.5-.92.96-1.93,1.37-2.99.17-.44.66-.66,1.1-.49.44.17.66.66.49,1.1-.43,1.13-.92,2.21-1.46,3.2-.22.41-.74.57-1.16.34-.28-.15-.45-.45-.45-.75ZM99.52,221.55c0-.29.15-.58.42-.73.41-.24.93-.1,1.17.3.59,1.01,1.15,2.04,1.64,3.07.2.43.03.93-.4,1.14-.42.2-.93.03-1.14-.4-.48-.99-1-1.98-1.57-2.94-.08-.14-.12-.28-.12-.43ZM101.49,273.34c0-.34.2-.66.54-.79.44-.18.93.04,1.11.47.42,1.06.79,2.18,1.08,3.35.11.45-.16.92-.62,1.03-.46.11-.92-.16-1.03-.62-.27-1.09-.61-2.14-1.01-3.13-.04-.1-.06-.21-.06-.32ZM101.93,296.82c0-.07,0-.15.03-.22.27-1.03.52-2.12.72-3.26.08-.46.53-.77.99-.69.46.08.77.53.69.99-.21,1.18-.47,2.32-.75,3.39-.12.46-.59.72-1.04.6-.38-.1-.63-.45-.63-.82ZM102.25,250.94c0-.11.02-.23.07-.34.44-1,.82-2.04,1.14-3.1.14-.45.61-.71,1.06-.57.45.14.7.61.57,1.06-.34,1.12-.74,2.23-1.21,3.29-.19.43-.69.63-1.12.44-.32-.14-.51-.45-.51-.78ZM102.46,227.69c0-.34.21-.67.55-.8.44-.17.93.06,1.1.5.41,1.1.78,2.21,1.08,3.32.13.45-.14.92-.6,1.05-.45.12-.92-.14-1.05-.6-.29-1.05-.63-2.12-1.03-3.16-.04-.1-.05-.2-.05-.3ZM103.16,290.13s0-.06,0-.1c.13-1.14.22-2.27.26-3.34.02-.47.42-.83.89-.81.47.02.84.42.81.89-.05,1.11-.14,2.28-.27,3.45-.05.47-.47.8-.94.75-.44-.05-.76-.42-.76-.85ZM103.17,279.93c0-.42.31-.79.74-.84.47-.06.89.27.96.73.15,1.11.24,2.28.29,3.47.02.48-.35.87-.82.88-.47.02-.87-.35-.88-.82-.04-1.14-.13-2.25-.27-3.31,0-.04,0-.08,0-.11ZM104.21,244.43s0-.1.01-.15c.19-1.08.32-2.18.39-3.28.03-.47.43-.83.9-.8.47.03.82.42.8.9-.07,1.17-.21,2.34-.41,3.48-.08.46-.52.77-.99.69-.41-.07-.7-.43-.7-.84ZM104.24,234.26c0-.41.3-.77.71-.84.46-.08.9.24.98.7.19,1.16.32,2.33.38,3.48.05.48-.33.87-.8.9-.47.03-.87-.33-.9-.8-.06-1.09-.18-2.2-.36-3.29,0-.05-.01-.09-.01-.14Z"/>
  <g>
    <g>
      <path class="cls-1" d="M72.61,140.22s-7.22-5.74-10.62-.98c-3.4,4.76,9.92,8.22,8.09,4.52-.79-1.6-8.01,3.58-5.8,7.21,2.21,3.63,15.2-4.81,8.33-10.74Z"/>
      <path class="cls-4" d="M66.16,152.52c-1.12,0-1.98-.42-2.45-1.2-.77-1.27-.68-2.78.25-4.38.33-.56.76-1.12,1.25-1.63-1.25-.47-2.45-1.15-3.26-1.96-1.38-1.38-1.57-3.02-.51-4.5.86-1.21,2.01-1.92,3.42-2.12,3.74-.53,7.99,2.82,8.17,2.96,0,0,.01.01.02.02,2.47,2.14,2.44,4.43,1.97,5.97-1.03,3.42-5.19,6.4-8.23,6.79-.22.03-.44.04-.64.04ZM66.67,145.75c-.35.33-.71.7-1.03,1.12-.64.82-1.6,2.41-.78,3.75.35.57,1.15.6,1.77.52,2.57-.33,6.23-2.95,7.1-5.84.51-1.68-.01-3.21-1.55-4.55-.22-.17-4.05-3.1-7.13-2.67-1.04.15-1.86.66-2.51,1.56-.43.6-.86,1.54.36,2.75.88.88,2.2,1.51,3.43,1.88,1.14-.9,2.34-1.51,3.22-1.48.51.02.92.26,1.13.67.62,1.26-.12,1.92-.36,2.1-.73.53-2.14.54-3.65.19ZM68.16,144.62c.64.05,1.14,0,1.37-.16.07-.05.04-.18-.06-.4-.15,0-.66.17-1.31.56Z"/>
    </g>
    <g>
      <path class="cls-1" d="M76.94,136.85s2.31-8.93,7.89-7.17c5.58,1.76-2.97,12.53-3.74,8.48-.33-1.75,8.55-1.96,8.97,2.26.42,4.23-15.03,5.3-13.12-3.57Z"/>
      <path class="cls-4" d="M84,144.26c-2.07,0-4.19-.49-5.7-1.6-1.3-.95-2.71-2.76-2.02-5.96,0,0,0-.02,0-.03.06-.22,1.44-5.45,4.74-7.28,1.24-.69,2.59-.81,4.01-.37,1.74.55,2.58,1.97,2.3,3.9-.16,1.13-.7,2.39-1.42,3.52.7.12,1.38.3,1.98.55,1.71.71,2.69,1.87,2.84,3.35.11,1.08-.52,2.07-1.78,2.79-1.26.72-3.09,1.13-4.96,1.13ZM77.6,137c-.42,1.99.08,3.52,1.5,4.56,2.43,1.78,6.94,1.67,9.19.39.54-.31,1.16-.81,1.1-1.48-.15-1.57-1.87-2.25-2.88-2.53-.51-.14-1.02-.22-1.5-.27-1,1.19-2.13,2.03-3.03,2.05-.31.03-1.29-.08-1.55-1.46-.09-.45.09-.89.49-1.22.67-.54,2-.8,3.46-.76.77-1.04,1.44-2.33,1.62-3.56.24-1.7-.66-2.2-1.37-2.42-1.06-.34-2.02-.25-2.94.26-2.72,1.51-4.01,6.16-4.09,6.43ZM83.12,137.7c-.75.09-1.27.28-1.38.44.06.12.1.26.21.23.28,0,.7-.26,1.17-.67Z"/>
    </g>
    <path class="cls-2" d="M76.3,146.21s-3.09,4.31-.47,7.94,6.9,6.11,9.01,3.66c2.11-2.45,3.06-7.59-.32-10.67-3.38-3.08-7.47-2.31-8.23-.93Z"/>
    <path class="cls-4" d="M74.78,151.28c-.26,0-.51-.15-.62-.41-.15-.34.01-.74.36-.89,3.53-1.52,7.59-3.57,8-4.25.19-.32.61-.43.93-.23.32.19.43.61.23.93-.81,1.36-6.81,4.02-8.62,4.8-.09.04-.18.05-.27.05Z"/>
    <path class="cls-4" d="M76.18,155.06c-.26,0-.5-.14-.61-.39-.16-.34-.01-.74.33-.9,3.53-1.65,8.76-4.41,9.35-5.41.19-.32.6-.43.93-.24.32.19.43.6.24.93-1.01,1.73-8.47,5.27-9.95,5.96-.09.04-.19.06-.29.06Z"/>
    <path class="cls-4" d="M73.28,138.76c-.27,0-.53-.16-.63-.43-.07-.19-1.87-4.63-7.06-4.35-.38.02-.69-.27-.71-.64-.02-.37.27-.69.64-.71,6.16-.31,8.37,5.16,8.39,5.21.14.35-.04.74-.38.88-.08.03-.16.05-.25.05Z"/>
    <path class="cls-4" d="M79.12,157.27c-.27,0-.53-.17-.63-.44-.13-.35.05-.74.4-.87,2.45-.92,6.58-2.85,7.26-4.16.17-.33.58-.46.91-.29.33.17.46.58.29.91-1.14,2.2-7.29,4.55-7.99,4.81-.08.03-.16.04-.24.04Z"/>
    <path class="cls-4" d="M74.87,138.41c-.24,0-.47-.13-.59-.35-3.5-6.26.62-10.11.67-10.15.28-.25.71-.23.96.05.25.28.23.7-.04.95h0c-.14.13-3.36,3.2-.4,8.48.18.33.07.74-.26.92-.1.06-.22.09-.33.09Z"/>
  </g>
</svg>