<?xml version="1.0" encoding="UTF-8"?>
<svg id="Capa_1" data-name="Capa 1" xmlns="http://www.w3.org/2000/svg" viewBox="0 0 425.2 425.2">
  <defs>
    <style>
      .cls-1 {
        fill: #231f20;
      }
    </style>
  </defs>
  <path class="cls-1" d="M206.23,99.65c-15.98,13.6-29.91,34.49-25.73,56.46,3.61,19.02,22.39,35.5,42.25,31.03-1.35-2.55-2.69-5.1-4.04-7.64-13.65,10.75-30.67,16.66-43.25,28.89-10.57,10.27-17.8,24-20.51,38.47-5.49,29.38,8.37,58.18,35.9,70.58,14.71,6.63,31.03,7.54,46.17,1.88,5.39-2.01,1.18-9.93-4.15-7.94-23.5,8.78-51.99-3.48-63.84-25.08-12.74-23.21-5.74-54.02,13.05-71.86,12.47-11.84,29.29-17.8,42.74-28.39,3.6-2.84.07-8.57-4.04-7.64-16.19,3.65-30.79-11.94-31.96-27.3-1.37-17.93,10.58-33.89,23.52-44.91,4.39-3.74-1.73-10.28-6.11-6.55h0Z"/>
  <path class="cls-1" d="M221.2,309.25c6.87,3.49,13.75,6.97,20.62,10.46-.24-2.36-.47-4.73-.71-7.09-5.84,6.69-11.03,13.78-15.51,21.46-2.89,4.97,4.72,9.69,7.63,4.69,4.06-6.97,8.68-13.52,13.98-19.6,1.74-2,2.13-5.65-.71-7.09-6.87-3.49-13.75-6.97-20.62-10.46-5.1-2.58-9.85,5.02-4.69,7.63h0Z"/>
</svg>