<?xml version="1.0" encoding="UTF-8"?>
<svg id="Capa_1" data-name="Capa 1" xmlns="http://www.w3.org/2000/svg" viewBox="0 0 425.2 425.2">
  <defs>
    <style>
      .cls-1 {
        fill: #231f20;
      }
    </style>
  </defs>
  <path class="cls-1" d="M109.22,232.11c9.43-25.07,25.18-47.44,45.48-64.9,20.8-17.88,48.41-33.06,76.61-31.69,28.03,1.36,47.59,22.03,60.94,44.87,11.3,19.34,19.34,44.35,39.78,56.3,27.16,15.88,51.04-7.45,66.69-27.8,4.03-5.24-4.76-10.61-8.77-5.39-7.87,10.23-17.17,22.07-29.79,26.53-11.48,4.06-22.63-.21-30.86-8.55-8.26-8.37-13.87-19-19.17-29.38-5.86-11.48-11.93-22.71-19.75-33.01-16.05-21.15-39.09-35.3-66.3-33.84-27.59,1.48-53.47,15.29-74.38,32.69-22.68,18.87-39.99,43.62-50.36,71.2-2.33,6.2,7.54,9.14,9.86,2.96Z"/>
  <path class="cls-1" d="M93.93,258.19c1.45,2.95,5.73,3.69,8.07,1.38,8.89-8.78,18.81-16.06,29.86-21.88,5.87-3.09,1.09-12.21-4.77-9.13-9.71,5.11-18.71,11.36-26.88,18.62-5.71-13.52-8.86-27.87-9.26-42.63-.18-6.6-10.47-7-10.29-.36.51,18.85,4.96,37.07,13.27,54Z"/>
</svg>