<?xml version="1.0" encoding="UTF-8"?>
<svg id="Capa_1" data-name="Capa 1" xmlns="http://www.w3.org/2000/svg" viewBox="0 0 425.2 425.2">
  <defs>
    <style>
      .cls-1 {
        fill: #231f20;
      }
    </style>
  </defs>
  <path class="cls-1" d="M244.34,87.93c1.94-1.32,3.01-3.11,3.42-4.98,5.98,16.03,11.97,32.05,17.95,48.08,3.51,9.4,17.3,2.06,13.83-7.23-7.8-20.9-15.61-41.81-23.41-62.71-1.44-3.86-7.22-5.19-10.53-3.3-15.9,9.08-31.8,18.16-47.7,27.24-8.71,4.98-1.5,18.82,7.23,13.84,6.28-3.59,12.56-7.17,18.83-10.76-8.66,14.77-8.17,33.89-1.2,50.39,5.99,14.16,16.14,26.08,25.66,37.96,1.85,2.3,5.03,5.36,5.2,8.45.24,4.39-4.29,8.6-6.94,11.48-5.24,5.68-11.15,10.71-16.86,15.9-19.06,17.36-38.96,42.94-26.03,69.84,9.24,19.23,30.27,27.5,45.48,40.92,10.87,9.6,16.29,22.05,9.64,36.16-7.91,16.77-26.21,24.92-42.05,32.37-9.11,4.29-1.83,18.1,7.23,13.84,24.89-11.71,55.64-29.74,53.39-61.77-1.58-22.5-20.88-35.11-37.68-46.86-8.15-5.7-17.17-11.91-21.77-21.05-6.67-13.27.24-28.06,8.95-38.55,14.65-17.63,55.91-39.04,36.86-66.15-10.23-14.56-23.77-27.15-29.04-44.7-3.87-12.87-2.53-30.17,9.53-38.41Z"/>
</svg>